<svg width="25" height="20" viewBox="0 0 25 20" fill="none" xmlns="http://www.w3.org/2000/svg">
<path fill-rule="evenodd" clip-rule="evenodd" d="M23 0C24.1046 0 25 0.89543 25 2C25 3.10457 24.1046 4 23 4H2C0.89543 4 0 3.10457 0 2C0 0.89543 0.895431 0 2 0H23ZM0 10C0 11.1046 0.895431 12 2 12H23C24.1046 12 25 11.1046 25 10C25 8.89543 24.1046 8 23 8H2C0.89543 8 0 8.89543 0 10ZM0 18C0 19.1046 0.89543 20 2 20H23C24.1046 20 25 19.1046 25 18C25 16.8954 24.1046 16 23 16H2C0.89543 16 0 16.8954 0 18Z" fill="#10B981"/>
</svg>
