<svg width="39" height="44" viewBox="0 0 39 44" fill="none" xmlns="http://www.w3.org/2000/svg">
<path d="M38.5878 32.6822V37.2729C38.5878 37.8253 38.1319 38.2751 37.5719 38.2751H29.1763C28.8294 38.5 28.4131 38.632 27.967 38.632C27.7886 38.632 27.6102 38.6076 27.4417 38.5684C24.696 41.5996 21.5935 43.6969 19.4228 43.9707C19.2592 43.9902 19.1006 44 18.952 44C18.8033 44 18.6447 43.9902 18.4811 43.9707C16.3946 43.7116 13.307 41.6533 10.6208 38.7347C10.6208 38.7347 10.5514 38.6564 10.5118 38.6173C10.4474 38.6222 10.378 38.6271 10.3135 38.6271C9.86751 38.6271 9.4512 38.4951 9.10427 38.2702H1.01599C0.455957 38.2702 0 37.8204 0 37.268V32.6773C0 32.1249 0.455957 31.6751 1.01599 31.6751H5.92744C4.80737 29.1622 4.23743 26.6493 4.23743 24.1902C4.23743 20.3378 5.12456 16.6467 6.79971 13.4884C6.74519 13.0142 6.71545 12.54 6.71545 12.0658C6.71545 9.53822 7.4886 7.13778 8.96055 5.09422L6.27932 3.696C5.99683 3.54933 5.81841 3.256 5.82336 2.93822C5.82336 2.62044 6.00674 2.332 6.28923 2.18533C8.39556 1.11467 10.8092 0.889778 13.0493 1.50089L13.1236 1.45689C14.9029 0.503556 16.92 0 18.9569 0C20.9938 0 23.011 0.503556 24.7951 1.45689L24.8695 1.50089C27.1047 0.889778 29.5232 1.11956 31.6295 2.18533C31.917 2.332 32.0954 2.62044 32.0954 2.93822C32.0954 3.256 31.922 3.54933 31.6395 3.696L28.9533 5.09911C30.4252 7.14267 31.1984 9.54311 31.1984 12.0707C31.1984 12.5449 31.1686 13.0191 31.1141 13.4933C32.7893 16.6516 33.6764 20.3378 33.6764 24.1902C33.6764 26.6493 33.1064 29.1573 31.9864 31.6751H37.5719C38.1319 31.6849 38.5878 32.1298 38.5878 32.6822Z" fill="#663333"/>
<path d="M30.1774 33.6844H36.5558V36.2707H30.1774V33.6844Z" fill="#CA5F38"/>
<path d="M30.5045 17.1747C31.2528 19.36 31.6444 21.7409 31.6444 24.2C31.6444 26.6396 31.01 29.1525 29.7511 31.6849H29.1762C28.8293 31.46 28.413 31.328 27.967 31.328C27.5209 31.328 27.1046 31.46 26.7577 31.6849H26.4851C26.1382 31.46 25.7219 31.328 25.2758 31.328C25.1767 31.328 25.0726 31.3329 24.9735 31.3476C24.9339 30.668 24.8546 29.9885 24.7307 29.3285C23.8584 24.5471 26.1679 19.668 30.4797 17.1893C30.4896 17.1796 30.4946 17.1796 30.5045 17.1747Z" fill="#B88D5B"/>
<path d="M29.7512 15.2973C29.652 15.3511 29.5579 15.4 29.4637 15.4587C24.4184 18.3529 21.7124 24.0729 22.7334 29.6804C22.8325 30.228 22.9019 30.7902 22.9415 31.3573C22.8226 31.3378 22.7036 31.328 22.5847 31.328C22.1387 31.328 21.7223 31.46 21.3754 31.6849H16.91C16.5631 31.46 16.1468 31.328 15.7007 31.328C15.443 31.328 15.1952 31.372 14.9672 31.4502C15.0019 30.8587 15.0763 30.2622 15.1804 29.6804C16.2261 23.9311 13.3615 18.1231 8.16754 15.2924C8.34596 14.9062 8.53925 14.5298 8.74244 14.1631C8.83661 13.9871 8.87626 13.8013 8.86139 13.6156C8.86139 13.596 8.7474 12.5596 8.7474 12.0756C8.7474 11.0684 8.89608 10.0858 9.18353 9.15199C9.17858 9.25955 9.17362 9.36222 9.17362 9.46977C9.17362 11.5573 10.5316 13.3907 12.5487 14.0262C13.0195 14.1729 13.5151 14.2462 14.0206 14.2462C14.5262 14.2462 15.0168 14.1729 15.4876 14.0262C15.8246 13.9236 16.1468 13.7769 16.4541 13.6009L17.5196 15.7031C17.7972 16.2458 18.3522 16.588 18.9668 16.588C19.2741 16.588 19.5665 16.5049 19.8192 16.3484C20.072 16.1969 20.2752 15.9769 20.414 15.7031L21.4745 13.6107C21.7769 13.7818 22.0941 13.9236 22.4212 14.0262C22.892 14.1778 23.3876 14.2511 23.8881 14.2511C24.3887 14.2511 24.8843 14.1778 25.3551 14.0262C27.3772 13.3956 28.7302 11.5622 28.7302 9.47466C28.7302 9.34755 28.7253 9.21555 28.7153 9.08844C29.0177 10.0467 29.1713 11.0489 29.1713 12.0756C29.1713 12.5644 29.1366 13.0582 29.0623 13.5422C29.0623 13.552 29.0623 13.5569 29.0573 13.5667C29.0325 13.7671 29.0672 13.9773 29.1713 14.168C29.3795 14.5347 29.5678 14.9111 29.7512 15.2973Z" fill="#F2EBDC"/>
<path d="M29.1416 3.08L20.2504 7.73423C20.8947 6.04267 22.1486 4.61023 23.8039 3.74489C24.9141 3.16311 26.1382 2.86978 27.3624 2.86978C27.9571 2.86978 28.5518 2.94311 29.1416 3.08Z" fill="#B88D5B"/>
<path d="M28.4517 33.5036V36.4515C28.4517 36.7155 28.2339 36.9307 27.9665 36.9307C27.6992 36.9307 27.4863 36.7155 27.4863 36.4515V33.5036C27.4863 33.2396 27.7041 33.0293 27.9665 33.0293C28.2339 33.0293 28.4517 33.2444 28.4517 33.5036Z" fill="#FDCB81"/>
<path d="M25.4592 6.93243C26.3464 7.47021 26.9014 8.43332 26.9014 9.46977C26.9014 10.7702 26.0589 11.9142 24.7951 12.3053C24.2103 12.4862 23.5561 12.4911 22.9713 12.3053C22.5153 12.1635 22.0891 11.9093 21.7521 11.572C21.648 11.4693 21.5539 11.3569 21.4696 11.2444C21.083 10.7262 20.8749 10.1151 20.8749 9.46977C20.8749 9.42088 20.8798 9.37688 20.8798 9.33288L22.4757 8.49688C22.327 8.64843 22.2328 8.85377 22.2328 9.07866C22.2328 9.53821 22.6095 9.90977 23.0754 9.90977C23.5412 9.90977 23.9179 9.53821 23.9179 9.07866C23.9179 8.6191 23.5412 8.24754 23.0754 8.24754C23.0258 8.24754 22.9713 8.25243 22.9217 8.26221L25.4592 6.93243Z" fill="white"/>
<path d="M25.7556 33.5036V36.4515C25.7556 36.7155 25.5378 36.9307 25.2754 36.9307C25.008 36.9307 24.7902 36.7155 24.7902 36.4515V33.5036C24.7902 33.2396 25.008 33.0293 25.2754 33.0293C25.5427 33.0293 25.7556 33.2444 25.7556 33.5036Z" fill="#FDCB81"/>
<path d="M24.0666 38.2751C24.245 38.3924 24.4432 38.4804 24.6563 38.544C24.1905 38.9889 23.7296 39.3898 23.2786 39.7516C23.5214 39.2822 23.7444 38.7884 23.9427 38.2751H24.0666Z" fill="#B88D5B"/>
<path d="M23.0645 33.5036V36.4515C23.0645 36.7155 22.8467 36.9307 22.5843 36.9307C22.3169 36.9307 22.104 36.7155 22.104 36.4515V33.5036C22.104 33.2396 22.3219 33.0293 22.5843 33.0293C22.8516 33.0293 23.0645 33.2444 23.0645 33.5036Z" fill="#FDCB81"/>
<path d="M21.3754 38.2751C21.4696 38.3338 21.5687 38.3876 21.6678 38.4365C20.9789 39.8836 20.0422 41.1107 18.9569 41.976C17.8913 41.1302 16.9893 39.9618 16.3004 38.5538C16.5185 38.4951 16.7217 38.3973 16.91 38.28H21.3754V38.2751Z" fill="#F2EBDC"/>
<path d="M18.9569 1.99954C20.1265 1.99954 21.2912 2.19999 22.3865 2.58621C20.8947 3.5151 19.7102 4.8351 18.9569 6.37999C18.2036 4.8351 17.0191 3.5151 15.5273 2.58621C16.6226 2.19999 17.7872 1.99954 18.9569 1.99954Z" fill="#B88D5B"/>
<path d="M17.9111 33.6844H20.3743V36.2707H17.9111V33.6844Z" fill="#CA5F38"/>
<path d="M20.0472 12.3836L18.9569 14.5298L17.8616 12.3738C17.8665 12.3689 18.6793 10.9853 18.7983 10.2129C18.8478 10.2227 19.051 10.2227 19.1006 10.2178C19.2195 10.9707 20.0323 12.3591 20.0472 12.3836Z" fill="#FDCB81"/>
<path d="M17.6733 7.73423L8.7821 3.08001C10.5663 2.65956 12.4645 2.87956 14.1198 3.7449C15.7751 4.61023 17.029 6.04268 17.6733 7.73423Z" fill="#B88D5B"/>
<path d="M17.024 9.32311C17.029 9.372 17.029 9.42088 17.029 9.46977C17.029 10.1298 16.8158 10.7556 16.4094 11.2738C16.4045 11.2787 16.3995 11.2884 16.3946 11.2933C16.3252 11.3862 16.2459 11.4693 16.1616 11.5573C15.8147 11.8996 15.3885 12.1587 14.9276 12.3053C14.3477 12.4862 13.6787 12.4862 13.0988 12.3053C11.8449 11.9093 10.9974 10.7702 10.9974 9.46977C10.9974 8.42844 11.5575 7.46533 12.4496 6.92755L14.997 8.26222C14.9474 8.25244 14.8979 8.24755 14.8433 8.24755C14.3775 8.24755 14.0008 8.61911 14.0008 9.07866C14.0008 9.53822 14.3775 9.90977 14.8433 9.90977C15.3092 9.90977 15.6859 9.53822 15.6859 9.07866C15.6859 8.84888 15.5917 8.64355 15.443 8.49688L17.024 9.32311Z" fill="white"/>
<path d="M16.1806 33.5036V36.4515C16.1806 36.7155 15.9627 36.9307 15.7003 36.9307C15.4329 36.9307 15.22 36.7155 15.22 36.4515V33.5036C15.22 33.2396 15.4379 33.0293 15.7003 33.0293C15.9677 33.0293 16.1806 33.2444 16.1806 33.5036Z" fill="#FDCB81"/>
<path d="M14.0355 38.4315C14.2189 38.8911 14.4221 39.336 14.6451 39.7564C14.2189 39.4142 13.7778 39.028 13.3268 38.6075C13.5746 38.5733 13.8075 38.4951 14.0157 38.3875C14.0256 38.4022 14.0305 38.4169 14.0355 38.4315Z" fill="#B88D5B"/>
<path d="M13.4943 33.5036V36.4515C13.4943 36.7155 13.2765 36.9307 13.0141 36.9307C12.7467 36.9307 12.5289 36.7155 12.5289 36.4515V33.5036C12.5289 33.2396 12.7467 33.0293 13.0141 33.0293C13.2765 33.0293 13.4943 33.2444 13.4943 33.5036Z" fill="#FDCB81"/>
<path d="M7.43403 17.1747C11.726 19.6338 14.0801 24.508 13.2029 29.3285C13.0839 29.9885 13.0046 30.6582 12.96 31.328C12.5388 31.3427 12.1472 31.4698 11.8201 31.6849H11.5476C11.2006 31.46 10.7843 31.328 10.3383 31.328C9.89224 31.328 9.47593 31.46 9.129 31.6849H8.1824C6.92356 29.1525 6.28918 26.6347 6.28918 24.2C6.28918 21.7409 6.68071 19.3649 7.43403 17.1747Z" fill="#B88D5B"/>
<path d="M10.7983 33.5036V36.4515C10.7983 36.7155 10.5804 36.9307 10.318 36.9307C10.0556 36.9307 9.83777 36.7155 9.83777 36.4515V33.5036C9.83777 33.2396 10.0556 33.0293 10.318 33.0293C10.5804 33.0293 10.7983 33.2444 10.7983 33.5036Z" fill="#FDCB81"/>
<path d="M2.03198 33.6844H8.1081V36.2707H2.03198V33.6844Z" fill="#CA5F38"/>
<path d="M13.8291 17.3034H10.2698C9.74149 17.3034 9.31281 17.7192 9.31281 18.2316V29.7683C9.31281 30.2808 9.74149 30.6966 10.2698 30.6966H27.7301C28.2585 30.6966 28.6871 30.2808 28.6871 29.7683V18.2316C28.6871 17.7192 28.2585 17.3034 27.7301 17.3034H13.8291Z" fill="white"/>
<path d="M28.7011 25.9722H27.1207C27.0906 25.9722 27.0651 25.9475 27.0651 25.9183V24.9518C27.0651 24.9226 27.0906 24.8979 27.1207 24.8979H28.7011C28.7312 24.8979 28.7567 24.9226 28.7567 24.9518V25.9183C28.7567 25.9475 28.7312 25.9722 28.7011 25.9722ZM11.067 22.5829H9.48664C9.45652 22.5829 9.43103 22.5582 9.43103 22.529V21.5625C9.43103 21.5333 9.45652 21.5086 9.48664 21.5086H11.067C11.0971 21.5086 11.1226 21.5333 11.1226 21.5625V22.529C11.1203 22.5604 11.0971 22.5829 11.067 22.5829Z" fill="#E74138"/>
<path d="M11.067 24.2776H9.48664C9.45652 24.2776 9.43103 24.2529 9.43103 24.2236V23.2572C9.43103 23.228 9.45652 23.2032 9.48664 23.2032H11.067C11.0971 23.2032 11.1226 23.228 11.1226 23.2572V24.2236C11.1203 24.2529 11.0971 24.2776 11.067 24.2776Z" fill="#3474B9"/>
<path d="M11.067 25.9722H9.48664C9.45652 25.9722 9.43103 25.9475 9.43103 25.9183V24.9518C9.43103 24.9226 9.45652 24.8979 9.48664 24.8979H11.067C11.0971 24.8979 11.1226 24.9226 11.1226 24.9518V25.9183C11.1203 25.9475 11.0971 25.9722 11.067 25.9722Z" fill="#E74138"/>
<path d="M27.7579 17.9462C28.0476 17.7462 27.9016 17.3012 27.5447 17.3012H10.4575C10.1007 17.3012 9.95467 17.7439 10.2443 17.9462L17.9398 23.2662C18.5748 23.7045 19.4252 23.7045 20.0578 23.2662L27.7579 17.9462Z" fill="white"/>
<path d="M19.0011 23.8326C18.5678 23.8326 18.153 23.7045 17.8008 23.4595L10.1053 18.1395C9.88516 17.9867 9.79478 17.726 9.8782 17.4765C9.96162 17.227 10.1887 17.0652 10.4598 17.0652H27.5471C27.8182 17.0652 28.0453 17.227 28.1287 17.4765C28.2121 17.726 28.1217 17.9867 27.9016 18.1395L20.2015 23.4595C19.8492 23.7045 19.4345 23.8326 19.0011 23.8326ZM10.4575 17.5394C10.3764 17.5394 10.3509 17.5979 10.3416 17.6203C10.3324 17.6451 10.3208 17.708 10.388 17.7529L18.0835 23.0751C18.3523 23.2617 18.6698 23.3606 19.0011 23.3606C19.3325 23.3606 19.65 23.2617 19.9188 23.0751L27.6143 17.7552C27.6791 17.7102 27.6676 17.6473 27.6606 17.6226C27.6513 17.5979 27.6259 17.5417 27.5447 17.5417H10.4575V17.5394Z" fill="#3E3A39"/>
<path d="M27.7325 31H10.2698C9.57004 31 9 30.4471 9 29.7683V18.2317C9 17.5529 9.57004 17 10.2698 17H27.7302C28.43 17 29 17.5529 29 18.2317V29.7683C29.0023 30.4471 28.4323 31 27.7325 31ZM10.2698 17.6068C9.91531 17.6068 9.62797 17.8855 9.62797 18.2294V29.7661C9.62797 30.11 9.91531 30.3887 10.2698 30.3887H27.7302C28.0847 30.3887 28.372 30.11 28.372 29.7661V18.2317C28.372 17.8878 28.0847 17.6091 27.7302 17.6091H10.2698V17.6068Z" fill="#3E3A39"/>
<path d="M17.3629 23.5741C17.3629 23.9985 17.5367 24.4055 17.8461 24.7057C18.1555 25.0058 18.5751 25.1744 19.0127 25.1744C19.4503 25.1744 19.8699 25.0058 20.1794 24.7057C20.4888 24.4055 20.6626 23.9985 20.6626 23.5741C20.6626 23.1497 20.4888 22.7427 20.1794 22.4426C19.8699 22.1424 19.4503 21.9738 19.0127 21.9738C18.5751 21.9738 18.1555 22.1424 17.8461 22.4426C17.5367 22.7427 17.3629 23.1497 17.3629 23.5741Z" fill="white"/>
<path d="M19.0127 25.4104C17.9677 25.4104 17.1196 24.5855 17.1196 23.5741C17.1196 22.5627 17.97 21.7379 19.0127 21.7379C20.0555 21.7379 20.9059 22.5627 20.9059 23.5741C20.9059 24.5855 20.0555 25.4104 19.0127 25.4104ZM19.0127 22.2098C18.2388 22.2098 17.6085 22.8212 17.6085 23.5719C17.6085 24.3225 18.2388 24.9339 19.0127 24.9339C19.7867 24.9339 20.417 24.3225 20.417 23.5719C20.417 22.8212 19.7867 22.2098 19.0127 22.2098Z" fill="#3E3A39"/>
<path d="M18.1044 23.5741C18.1044 23.8078 18.2001 24.0319 18.3704 24.1971C18.5408 24.3623 18.7718 24.4551 19.0127 24.4551C19.2536 24.4551 19.4847 24.3623 19.655 24.1971C19.8254 24.0319 19.9211 23.8078 19.9211 23.5741C19.9211 23.3404 19.8254 23.1163 19.655 22.9511C19.4847 22.7859 19.2536 22.6931 19.0127 22.6931C18.7718 22.6931 18.5408 22.7859 18.3704 22.9511C18.2001 23.1163 18.1044 23.3404 18.1044 23.5741Z" fill="#E74138"/>
<path d="M19.0127 24.6911C18.3778 24.6911 17.8611 24.1899 17.8611 23.5741C17.8611 22.9583 18.3778 22.4571 19.0127 22.4571C19.6477 22.4571 20.1644 22.9583 20.1644 23.5741C20.1644 24.1899 19.6477 24.6911 19.0127 24.6911ZM19.0127 22.9313C18.6466 22.9313 18.35 23.219 18.35 23.5741C18.35 23.9292 18.6466 24.2169 19.0127 24.2169C19.3789 24.2169 19.6755 23.9292 19.6755 23.5741C19.6755 23.219 19.3766 22.9313 19.0127 22.9313Z" fill="#336EAD"/>
<path d="M22.9659 28.3097H11.6115C11.5652 28.3097 11.5281 28.2737 11.5281 28.2288V27.9006C11.5281 27.8557 11.5652 27.8197 11.6115 27.8197H22.9659C23.0123 27.8197 23.0493 27.8557 23.0493 27.9006V28.2288C23.0493 28.2737 23.0123 28.3097 22.9659 28.3097ZM19.3696 29.2244H11.6138C11.5675 29.2244 11.5304 29.1885 11.5304 29.1435V28.8154C11.5304 28.7704 11.5675 28.7345 11.6138 28.7345H19.3719C19.4182 28.7345 19.4553 28.7704 19.4553 28.8154V29.1435C19.4553 29.1885 19.4159 29.2244 19.3696 29.2244ZM26.458 27.2668H11.6138C11.5675 27.2668 11.5304 27.2309 11.5304 27.1859V26.8578C11.5304 26.8128 11.5675 26.7769 11.6138 26.7769H26.458C26.5043 26.7769 26.5414 26.8128 26.5414 26.8578V27.1859C26.5414 27.2309 26.5043 27.2668 26.458 27.2668Z" fill="#C9E6E6"/>
</svg>
